<svg id="Layer_1" data-name="Layer 1" xmlns="http://www.w3.org/2000/svg" viewBox="0 0 304.71 73.35"><defs><style>.cls-1{fill:#ed1c24;}</style></defs><path d="M3.3,61.73Q0,58.15,0,51.62V21.68q0-6.53,3.3-10.11T12.9,8q6.28,0,9.6,3.58t3.3,10.11v5.89H17.52V21.12q0-5.17-4.38-5.17T8.76,21.12V52.26c0,3.4,1.46,5.09,4.38,5.09s4.38-1.69,4.38-5.09V43.74H25.8v7.88q0,6.52-3.3,10.11t-9.6,3.59Q6.62,65.32,3.3,61.73Z"/><path d="M31.05,8.78h8.76V31.47h9.4V8.78H58V64.52H49.21V39.44h-9.4V64.52H31.05Z"/><path d="M64.5,8.78h8.76V64.52H64.5Z"/><path d="M79.78,8.78h23.89v8H88.54V31.47h12v8h-12V56.56h15.13v8H79.78Z"/><path d="M108.69,8.78h23.17v8H117.45V32.27h11.31v8H117.45V64.52h-8.76Z"/><path class="cls-1" d="M147.71,8.78h13.38q6.53,0,9.79,3.51t3.27,10.27V50.75q0,6.77-3.27,10.27t-9.79,3.5H147.71Zm13.22,47.78a4.23,4.23,0,0,0,3.3-1.28,6.06,6.06,0,0,0,1.16-4.14v-29A6.08,6.08,0,0,0,164.23,18a4.23,4.23,0,0,0-3.3-1.28h-4.46V56.56Z"/><path class="cls-1" d="M180,8.78h23.89v8H188.8V31.47h12v8h-12V56.56h15.13v8H180Z"/><path class="cls-1" d="M215.71,8.78h11.86l9.08,55.74h-8.76L226.3,53.45v.16h-10l-1.6,10.91h-8.12Zm9.56,37.27L221.36,18.5h-.16l-3.82,27.55Z"/><path class="cls-1" d="M240.87,8.78h8.76V56.56H264v8H240.87Z"/><path class="cls-1" d="M277.34,63.33a11,11,0,0,1-7-4.38,14.77,14.77,0,0,1-2.43-8.76V46.52h8.29v4.23q0,4.84,4.54,4.85t4.53-5A10.28,10.28,0,0,0,283.63,45a25.73,25.73,0,0,0-5.89-5.85,30.55,30.55,0,0,1-7.49-7.88A16.12,16.12,0,0,1,268.1,23a14.54,14.54,0,0,1,2.35-8.53,11.07,11.07,0,0,1,6.89-4.37V5.2h7.17v4.86a10.84,10.84,0,0,1,7,4.33,14.75,14.75,0,0,1,2.39,8.72v1.6h-8.28V22.56q0-4.93-4.38-4.94t-4.38,4.78a9.4,9.4,0,0,0,1.6,5.29,27.91,27.91,0,0,0,5.89,5.85,31.17,31.17,0,0,1,7.48,8A16.5,16.5,0,0,1,294,50a15.12,15.12,0,0,1-2.43,8.88,10.92,10.92,0,0,1-7,4.42V68.9h-7.17Z"/><path d="M301.88,2.84V70.52H141.33V2.84H301.88M304.71,0H138.49V73.35H304.71V0Z"/></svg>